<svg width="62" height="62" viewBox="0 0 62 62" fill="none" xmlns="http://www.w3.org/2000/svg">
<g filter="url(#filter0_d_1490_47)">
<circle cx="31" cy="27" r="27" fill="white"/>
<path d="M31 30.5357C33.7112 30.5357 35.9091 28.3772 35.9091 25.7143V17.6786C35.9091 15.0158 33.7112 12.8572 31 12.8572C28.2887 12.8572 26.0909 15.0158 26.0909 17.6786V25.7143C26.0909 28.3772 28.2887 30.5357 31 30.5357ZM39.1818 22.5H38.3636C37.9116 22.5 37.5455 22.8596 37.5455 23.3036V25.7143C37.5455 29.471 34.2477 32.4854 30.346 32.1118C26.9454 31.7858 24.4545 28.7835 24.4545 25.428V23.3036C24.4545 22.8596 24.0884 22.5 23.6364 22.5H22.8182C22.3661 22.5 22 22.8596 22 23.3036V25.3206C22 29.8226 25.2712 33.8359 29.7727 34.4456V36.1607H26.9091C26.457 36.1607 26.0909 36.5203 26.0909 36.9643V37.7679C26.0909 38.2119 26.457 38.5715 26.9091 38.5715H35.0909C35.543 38.5715 35.9091 38.2119 35.9091 37.7679V36.9643C35.9091 36.5203 35.543 36.1607 35.0909 36.1607H32.2273V34.4647C36.6102 33.8741 40 30.1792 40 25.7143V23.3036C40 22.8596 39.6339 22.5 39.1818 22.5Z" fill="black"/>
</g>
<defs>
<filter id="filter0_d_1490_47" x="0" y="0" width="62" height="62" filterUnits="userSpaceOnUse" color-interpolation-filters="sRGB">
<feFlood flood-opacity="0" result="BackgroundImageFix"/>
<feColorMatrix in="SourceAlpha" type="matrix" values="0 0 0 0 0 0 0 0 0 0 0 0 0 0 0 0 0 0 127 0" result="hardAlpha"/>
<feOffset dy="4"/>
<feGaussianBlur stdDeviation="2"/>
<feComposite in2="hardAlpha" operator="out"/>
<feColorMatrix type="matrix" values="0 0 0 0 0 0 0 0 0 0 0 0 0 0 0 0 0 0 0.25 0"/>
<feBlend mode="normal" in2="BackgroundImageFix" result="effect1_dropShadow_1490_47"/>
<feBlend mode="normal" in="SourceGraphic" in2="effect1_dropShadow_1490_47" result="shape"/>
</filter>
</defs>
</svg>
