<svg width="63" height="63" viewBox="0 0 63 63" fill="none" xmlns="http://www.w3.org/2000/svg">
<g filter="url(#filter0_d_1490_45)">
<circle cx="31.5" cy="27.5" r="27.5" fill="#FF0000"/>
<path d="M48.1949 36.5286L39.8 30.29C40.4698 29.0618 40.8629 27.6746 40.8629 26.1906V23.7353C40.8629 23.2831 40.482 22.9168 40.0117 22.9168H39.1605C38.6903 22.9168 38.3094 23.2831 38.3094 23.7353V26.1906C38.3094 27.1073 38.0987 27.9707 37.7391 28.7585L36.3266 27.7088C36.4915 27.228 36.6075 26.7257 36.6075 26.1911V18.0061C36.6075 15.294 34.321 13.0955 31.5004 13.0955C28.6797 13.0955 26.3932 15.294 26.3932 18.0061V20.3264L16.895 13.2678C16.5237 12.9906 15.9885 13.0545 15.7001 13.4116L14.6553 14.7042C14.367 15.0608 14.4335 15.5748 14.8048 15.8526L46.1052 39.1134C46.4765 39.3911 47.0112 39.3267 47.3 38.9696L48.3449 37.677C48.6327 37.3205 48.5662 36.8064 48.1949 36.5286V36.5286ZM35.7558 36.8304H32.7766V35.103C33.3969 35.0211 33.9922 34.8708 34.5678 34.6779L31.902 32.6968C31.5451 32.7172 31.1886 32.7413 30.8194 32.707C27.8482 32.4282 25.5665 30.2194 24.9047 27.4971L22.1367 25.4392V25.7896C22.1367 30.3749 25.5399 34.4626 30.223 35.0836V36.8304H27.2439C26.7736 36.8304 26.3927 37.1967 26.3927 37.6489V38.4673C26.3927 38.9195 26.7736 39.2858 27.2439 39.2858H35.7558C36.2261 39.2858 36.607 38.9195 36.607 38.4673V37.6489C36.607 37.1967 36.2261 36.8304 35.7558 36.8304Z" fill="white"/>
</g>
<defs>
<filter id="filter0_d_1490_45" x="0" y="0" width="63" height="63" filterUnits="userSpaceOnUse" color-interpolation-filters="sRGB">
<feFlood flood-opacity="0" result="BackgroundImageFix"/>
<feColorMatrix in="SourceAlpha" type="matrix" values="0 0 0 0 0 0 0 0 0 0 0 0 0 0 0 0 0 0 127 0" result="hardAlpha"/>
<feOffset dy="4"/>
<feGaussianBlur stdDeviation="2"/>
<feComposite in2="hardAlpha" operator="out"/>
<feColorMatrix type="matrix" values="0 0 0 0 0 0 0 0 0 0 0 0 0 0 0 0 0 0 0.25 0"/>
<feBlend mode="normal" in2="BackgroundImageFix" result="effect1_dropShadow_1490_45"/>
<feBlend mode="normal" in="SourceGraphic" in2="effect1_dropShadow_1490_45" result="shape"/>
</filter>
</defs>
</svg>
